<svg width="100%" height="100%" id="svg" viewBox="0 0 1440 590" xmlns="http://www.w3.org/2000/svg" class="transition duration-300 ease-in-out delay-150"><path d="M 0,600 L 0,112 C 117.19617224880383,120.34449760765551 234.39234449760767,128.68899521531102 312,126 C 389.60765550239233,123.31100478468899 427.62679425837314,109.58851674641149 530,105 C 632.3732057416269,100.41148325358851 799.1004784688996,104.95693779904306 897,94 C 994.8995215311004,83.04306220095694 1023.9712918660287,56.58373205741626 1103,57 C 1182.0287081339713,57.41626794258374 1311.0143540669856,84.70813397129187 1440,112 L 1440,600 L 0,600 Z" stroke="none" stroke-width="0" fill="#c52aa5" fill-opacity="0.4" class="transition-all duration-300 ease-in-out delay-150 path-0"></path><path d="M 0,600 L 0,262 C 116.133971291866,285.244019138756 232.267942583732,308.488038277512 325,294 C 417.732057416268,279.511961722488 487.0622009569379,227.2918660287081 572,215 C 656.9377990430621,202.7081339712919 757.4832535885166,230.3444976076555 865,235 C 972.5167464114834,239.6555023923445 1087.0047846889954,221.33014354066987 1184,222 C 1280.9952153110046,222.66985645933013 1360.4976076555022,242.33492822966508 1440,262 L 1440,600 L 0,600 Z" stroke="none" stroke-width="0" fill="#c52aa5" fill-opacity="0.53" class="transition-all duration-300 ease-in-out delay-150 path-1"></path><path d="M 0,600 L 0,412 C 82.14354066985646,415.72248803827756 164.28708133971293,419.44497607655506 257,401 C 349.7129186602871,382.55502392344494 452.9952153110049,341.9425837320574 562,356 C 671.0047846889951,370.0574162679426 785.7320574162679,438.7846889952153 880,445 C 974.2679425837321,451.2153110047847 1048.0765550239234,394.9186602870813 1138,379 C 1227.9234449760766,363.0813397129187 1333.9617224880383,387.5406698564593 1440,412 L 1440,600 L 0,600 Z" stroke="none" stroke-width="0" fill="#c52aa5" fill-opacity="1" class="transition-all duration-300 ease-in-out delay-150 path-2"></path></svg>